<?xml version="1.0" encoding="UTF-8" standalone="no"?>
<!-- Created with Inkscape (http://www.inkscape.org/) -->

<svg
   xmlns:dc="http://purl.org/dc/elements/1.1/"
   xmlns:cc="http://creativecommons.org/ns#"
   xmlns:rdf="http://www.w3.org/1999/02/22-rdf-syntax-ns#"
   xmlns:svg="http://www.w3.org/2000/svg"
   xmlns="http://www.w3.org/2000/svg"
   xmlns:sodipodi="http://sodipodi.sourceforge.net/DTD/sodipodi-0.dtd"
   xmlns:inkscape="http://www.inkscape.org/namespaces/inkscape"
   width="14.501027"
   height="9.9245272"
   viewBox="0 0 14.501027 9.9245272"
   version="1.1"
   id="SVGRoot"
   inkscape:version="0.92.4 (5da689c313, 2019-01-14)"
   sodipodi:docname="catLogo.svg"
   inkscape:export-filename="C:\Users\Graciela Putri\Documents\UoB\WebResources\Design\catLogo.png"
   inkscape:export-xdpi="96"
   inkscape:export-ydpi="96">
  <defs
     id="defs3734">
    <clipPath
       clipPathUnits="userSpaceOnUse"
       id="clipPath65">
      <rect
         style="fill:#ffffff;fill-opacity:1;stroke-width:0.5"
         id="rect67"
         width="8"
         height="5.6320753"
         x="3.6934495"
         y="4.5838456" />
    </clipPath>
  </defs>
  <sodipodi:namedview
     id="base"
     pagecolor="#ffffff"
     bordercolor="#666666"
     borderopacity="1.0"
     inkscape:pageopacity="0.0"
     inkscape:pageshadow="2"
     inkscape:zoom="44.5"
     inkscape:cx="1.392775"
     inkscape:cy="4.004188"
     inkscape:document-units="px"
     inkscape:current-layer="layer1"
     showgrid="false"
     inkscape:window-width="1920"
     inkscape:window-height="1017"
     inkscape:window-x="-8"
     inkscape:window-y="-8"
     inkscape:window-maximized="1"
     inkscape:grid-bbox="true"
     showguides="true"
     inkscape:guide-bbox="true">
    <sodipodi:guide
       position="-0.52296493,-5.3563715"
       orientation="0,16"
       id="guide3867"
       inkscape:locked="false" />
    <sodipodi:guide
       position="15.477035,-5.3563715"
       orientation="-16,0"
       id="guide3869"
       inkscape:locked="false" />
    <sodipodi:guide
       position="15.477035,10.643628"
       orientation="0,-16"
       id="guide3871"
       inkscape:locked="false" />
    <sodipodi:guide
       position="-0.52296493,10.643628"
       orientation="16,0"
       id="guide3873"
       inkscape:locked="false" />
    <sodipodi:guide
       position="0.66571426,4.4926851"
       orientation="1,0"
       id="guide3875"
       inkscape:locked="false" />
    <sodipodi:guide
       position="10.70345,-0.6205224"
       orientation="0,1"
       id="guide3930"
       inkscape:locked="false" />
  </sodipodi:namedview>
  <metadata
     id="metadata3737">
    <rdf:RDF>
      <cc:Work
         rdf:about="">
        <dc:format>image/svg+xml</dc:format>
        <dc:type
           rdf:resource="http://purl.org/dc/dcmitype/StillImage" />
        <dc:title />
      </cc:Work>
    </rdf:RDF>
  </metadata>
  <g
     inkscape:label="Layer 1"
     inkscape:groupmode="layer"
     id="layer1"
     style="opacity:1"
     transform="translate(-0.52296494,-0.7191011)">
    <g
       id="g61"
       transform="matrix(2,0,0,2,-7.3868989,-9.1676913)"
       clip-path="url(#clipPath65)">
      <path
         inkscape:export-ydpi="13871.091"
         inkscape:export-xdpi="13871.091"
         sodipodi:nodetypes="cscc"
         inkscape:connector-curvature="0"
         id="path3747"
         d="m 7.5801883,9.9056599 c -1.9668632,0 -4.015675,-1.0495405 -3.5613208,-2.1415093 C 4.6721817,6.194013 5.6133259,5.6209647 7.5801883,5.6226413 Z"
         style="opacity:1;fill:#000000;stroke-width:0.64280236" />
      <path
         inkscape:export-ydpi="13871.091"
         inkscape:export-xdpi="13871.091"
         sodipodi:nodetypes="ccccc"
         inkscape:connector-curvature="0"
         id="rect3892"
         d="m 4.6698115,4.9433966 c 0.5440112,0.3121738 2.1358262,1.0861332 1.4339622,0.9905661 l 0.264151,0.726415 H 4.6792455 C 4.1665981,7.8358799 4.3863272,5.815252 4.6698115,4.9433966 Z"
         style="opacity:1;fill:#000000;stroke-width:1.16654134" />
      <path
         inkscape:export-ydpi="13871.091"
         inkscape:export-xdpi="13871.091"
         style="opacity:1;fill:#000000;stroke-width:0.64280236"
         d="m 7.5801887,9.9056595 c 1.9668632,0 4.0156753,-1.0495405 3.5613213,-2.1415093 C 10.488195,6.1940126 9.5470511,5.6209643 7.5801887,5.6226409 Z"
         id="path4039"
         inkscape:connector-curvature="0"
         sodipodi:nodetypes="cscc" />
      <path
         inkscape:export-ydpi="13871.091"
         inkscape:export-xdpi="13871.091"
         style="opacity:1;fill:#000000;stroke-width:1.16654134"
         d="M 10.490566,4.9433962 C 9.9465543,5.25557 8.3547393,6.0295294 9.0566033,5.9339623 l -0.264151,0.726415 h 1.6886797 c 0.512647,1.1755022 0.292918,-0.8451257 0.0094,-1.7169811 z"
         id="path4045"
         inkscape:connector-curvature="0"
         sodipodi:nodetypes="ccccc" />
      <path
         inkscape:export-ydpi="13871.091"
         inkscape:export-xdpi="13871.091"
         sodipodi:nodetypes="cccc"
         inkscape:connector-curvature="0"
         id="path4105"
         d="M 5.9317031,6.1745567 C 5.4065339,6.2677471 5.0247806,6.4525007 4.6792455,6.6603778 4.7416345,6.3162323 4.7231928,5.8993343 5.110897,5.4043902 Z"
         inkscape:transform-center-y="-0.013820854"
         inkscape:transform-center-x="-0.18239411"
         style="opacity:1;fill:#ffd5d5"
         transform="rotate(-12,4.6792452,6.6603779)" />
      <path
         inkscape:export-ydpi="13871.091"
         inkscape:export-xdpi="13871.091"
         style="opacity:1;fill:#ffd5d5"
         inkscape:transform-center-x="0.18239409"
         inkscape:transform-center-y="-0.013820868"
         d="m 9.3570515,5.924772 c 0.4943176,0.2003428 0.8293165,0.4604301 1.1240805,0.7356053 0.01053,-0.3495965 0.115243,-0.75355 -0.161084,-1.3182866 z"
         id="path4117"
         inkscape:connector-curvature="0"
         sodipodi:nodetypes="cccc" />
      <ellipse
         inkscape:export-ydpi="13871.091"
         inkscape:export-xdpi="13871.091"
         ry="0.11792454"
         rx="0.26886794"
         cy="8.1745281"
         cx="7.5896225"
         id="path4119"
         style="opacity:1;fill:#ffd5d5;stroke-width:1.27615488" />
      <path
         inkscape:export-ydpi="13871.091"
         inkscape:export-xdpi="13871.091"
         sodipodi:nodetypes="sssss"
         inkscape:connector-curvature="0"
         id="path3751-5"
         d="M 6.9433962,7.4433952 C 6.7435751,7.4195172 6.4914009,7.6215414 6.1981132,7.6132065 5.8618674,7.6036507 5.4467873,7.1396134 5.3207547,6.9339613 5.2842581,6.8744083 5.7990528,6.7472638 6.1981132,6.7169801 6.5992167,6.6865414 7.142777,7.4672206 6.9433962,7.4433952 Z"
         style="opacity:0.49000005;fill:#b3ff80;stroke-width:1.35400641" />
      <path
         inkscape:export-ydpi="13871.091"
         inkscape:export-xdpi="13871.091"
         style="opacity:0.49000005;fill:#b3ff80;stroke-width:1.35400641"
         d="M 8.2169808,7.4433948 C 8.4168019,7.4195168 8.6689761,7.621541 8.9622638,7.6132061 9.2985096,7.6036503 9.7135897,7.139613 9.8396223,6.9339609 9.8761189,6.8744079 9.3613242,6.7472634 8.9622638,6.7169797 8.5611603,6.686541 8.0176,7.4672202 8.2169808,7.4433948 Z"
         id="path4043"
         inkscape:connector-curvature="0"
         sodipodi:nodetypes="sssss" />
      <ellipse
         inkscape:export-ydpi="13871.091"
         inkscape:export-xdpi="13871.091"
         transform="scale(-1,1)"
         style="opacity:1;fill:#000000;stroke-width:0.89214259"
         id="ellipse4041"
         cx="-9.0188675"
         cy="7.0849047"
         rx="0.45283017"
         ry="0.36792454" />
      <ellipse
         inkscape:export-ydpi="13871.091"
         inkscape:export-xdpi="13871.091"
         ry="0.36792454"
         rx="0.45283017"
         cy="7.0849051"
         cx="6.1415095"
         id="path3751"
         style="opacity:1;fill:#000000;stroke-width:0.89214259" />
      <ellipse
         inkscape:export-ydpi="13871.091"
         inkscape:export-xdpi="13871.091"
         ry="0.084905669"
         rx="0.16981131"
         cy="6.9811316"
         cx="6.3962269"
         id="path4053"
         style="opacity:1;fill:#eeffaa;stroke-width:1.60356736" />
      <ellipse
         inkscape:export-ydpi="13871.091"
         inkscape:export-xdpi="13871.091"
         ry="0.084905662"
         rx="0.16981131"
         cy="6.9669805"
         cx="9.2641506"
         id="path4053-9"
         style="opacity:1;fill:#eeffaa;stroke-width:1.60356736" />
      <g
         inkscape:export-ydpi="13871.091"
         inkscape:export-xdpi="13871.091"
         id="g4215">
        <path
           style="fill:#ffffff;fill-opacity:1"
           id="path4198"
           d="M 5.6475177,8.1153511 C 5.572655,8.065645 5.4874035,8.0359663 5.4025307,8.0084929 5.2841815,7.9739599 5.1646026,7.9431771 5.0445425,7.9151165 c -0.037896,-0.00931 -0.076079,-0.017299 -0.1143538,-0.024852 -0.025274,-0.00606 -0.016703,-0.041802 0.00857,-0.035742 v 0 c 0.037689,0.010646 0.075274,0.021646 0.1129689,0.032272 0.1194481,0.0327 0.2393625,0.063478 0.3589546,0.095596 0.088318,0.026602 0.1752395,0.057046 0.2588531,0.096264 0.025948,0.015569 0.00393,0.052266 -0.022018,0.036697 z"
           inkscape:connector-curvature="0" />
        <path
           style="fill:#ffffff;fill-opacity:1"
           id="path4200"
           d="m 5.3155186,8.3419014 c -0.091752,-0.00904 -0.1840185,-0.00293 -0.2756197,0.00467 -0.079003,0.00654 -0.1567918,0.02075 -0.2341956,0.037287 -0.026327,0.00478 -0.033093,-0.032447 -0.00677,-0.037232 v 0 c 0.079312,-0.011912 0.1585486,-0.024081 0.2386629,-0.029512 0.092584,-0.00678 0.1852838,-0.011726 0.2779187,-0.017501 0.029906,0 0.029906,0.042293 0,0.042293 z"
           inkscape:connector-curvature="0" />
        <path
           style="fill:#ffffff;fill-opacity:1"
           id="path4210"
           d="m 5.3945515,8.6475032 c -0.059764,0.027515 -0.1220328,0.047125 -0.1856718,0.06321 -0.055585,0.014448 -0.1121575,0.02367 -0.1687462,0.032939 -0.027601,0.00417 -0.033494,-0.034867 -0.00589,-0.039034 v 0 c 0.055643,-0.00771 0.1113662,-0.014676 0.1660398,-0.028129 0.060969,-0.015225 0.1217946,-0.032786 0.1750514,-0.067424 0.02718,-0.01359 0.0464,0.024849 0.019219,0.038439 z"
           inkscape:connector-curvature="0" />
      </g>
      <g
         inkscape:export-ydpi="13871.091"
         inkscape:export-xdpi="13871.091"
         transform="matrix(-1,0,0,1,15.340764,-0.0210115)"
         id="g4235">
        <path
           inkscape:connector-curvature="0"
           d="M 5.6475177,8.1153511 C 5.572655,8.065645 5.4874035,8.0359663 5.4025307,8.0084929 5.2841815,7.9739599 5.1646026,7.9431771 5.0445425,7.9151165 c -0.037896,-0.00931 -0.076079,-0.017299 -0.1143538,-0.024852 -0.025274,-0.00606 -0.016703,-0.041802 0.00857,-0.035742 v 0 c 0.037689,0.010646 0.075274,0.021646 0.1129689,0.032272 0.1194481,0.0327 0.2393625,0.063478 0.3589546,0.095596 0.088318,0.026602 0.1752395,0.057046 0.2588531,0.096264 0.025948,0.015569 0.00393,0.052266 -0.022018,0.036697 z"
           id="path4229"
           style="fill:#ffffff;fill-opacity:1" />
        <path
           inkscape:connector-curvature="0"
           d="m 5.3155186,8.3419014 c -0.091752,-0.00904 -0.1840185,-0.00293 -0.2756197,0.00467 -0.079003,0.00654 -0.1567918,0.02075 -0.2341956,0.037287 -0.026327,0.00478 -0.033093,-0.032447 -0.00677,-0.037232 v 0 c 0.079312,-0.011912 0.1585486,-0.024081 0.2386629,-0.029512 0.092584,-0.00678 0.1852838,-0.011726 0.2779187,-0.017501 0.029906,0 0.029906,0.042293 0,0.042293 z"
           id="path4231"
           style="fill:#ffffff;fill-opacity:1" />
        <path
           inkscape:connector-curvature="0"
           d="m 5.3945515,8.6475032 c -0.059764,0.027515 -0.1220328,0.047125 -0.1856718,0.06321 -0.055585,0.014448 -0.1121575,0.02367 -0.1687462,0.032939 -0.027601,0.00417 -0.033494,-0.034867 -0.00589,-0.039034 v 0 c 0.055643,-0.00771 0.1113662,-0.014676 0.1660398,-0.028129 0.060969,-0.015225 0.1217946,-0.032786 0.1750514,-0.067424 0.02718,-0.01359 0.0464,0.024849 0.019219,0.038439 z"
           id="path4233"
           style="fill:#ffffff;fill-opacity:1" />
      </g>
      <g
         inkscape:export-ydpi="13871.091"
         inkscape:export-xdpi="13871.091"
         transform="translate(0.0754717,-0.14150943)"
         id="g4278">
        <path
           style="fill:#ffffff;fill-opacity:1"
           id="path4263"
           d="m 7.4955077,8.4943336 c -0.023471,0.019161 -0.048549,0.036659 -0.07053,0.057565 -0.017594,0.019922 -0.038776,0.035323 -0.061068,0.049462 -0.020984,0.014465 -0.041892,0.028925 -0.064073,0.041517 -0.028014,0.014466 -0.057341,0.026413 -0.087045,0.036943 -0.022928,0.00801 -0.046964,0.010706 -0.071064,0.011868 -0.012985,4.572e-4 -0.025979,4.073e-4 -0.038969,3.821e-4 -0.031142,-7.85e-5 -0.031031,-0.04412 1.11e-4,-0.044041 v 0 c 0.012325,3.84e-5 0.024653,1.037e-4 0.036976,-2.145e-4 0.020018,-7.375e-4 0.040068,-0.00233 0.059335,-0.00825 0.027537,-0.0088 0.054389,-0.019873 0.079616,-0.034055 0.0216,-0.012045 0.04148,-0.026839 0.062074,-0.04048 0.02017,-0.012791 0.039095,-0.026987 0.055512,-0.044515 0.023272,-0.020474 0.049175,-0.03782 0.070803,-0.060172 0.024032,-0.020027 0.052354,0.01396 0.028322,0.033986 z"
           inkscape:connector-curvature="0" />
        <path
           inkscape:connector-curvature="0"
           d="m 7.4955077,8.494338 c 0.023471,0.019161 0.048549,0.036659 0.07053,0.057565 0.017594,0.019922 0.038776,0.035323 0.061068,0.049462 0.020984,0.014465 0.041892,0.028925 0.064073,0.041517 0.028014,0.014466 0.057341,0.026413 0.087045,0.036943 0.022928,0.00801 0.046964,0.010706 0.071064,0.011868 0.012985,4.572e-4 0.025979,4.073e-4 0.038969,3.821e-4 0.031142,-7.85e-5 0.031031,-0.04412 -1.11e-4,-0.044041 v 0 c -0.012325,3.84e-5 -0.024653,1.037e-4 -0.036976,-2.145e-4 -0.020018,-7.375e-4 -0.040068,-0.00233 -0.059335,-0.00825 -0.027537,-0.0088 -0.054389,-0.019873 -0.079616,-0.034055 -0.0216,-0.012045 -0.04148,-0.026839 -0.062074,-0.04048 -0.02017,-0.012791 -0.039095,-0.026987 -0.055512,-0.044515 -0.023272,-0.020474 -0.049175,-0.03782 -0.070803,-0.060172 -0.024032,-0.020027 -0.052354,0.01396 -0.028322,0.033986 z"
           id="path4274"
           style="fill:#ffffff;fill-opacity:1" />
      </g>
    </g>
  </g>
</svg>
